<svg width="59.99999999999999" height="59.99999999999999" xmlns="http://www.w3.org/2000/svg">
 <title/>

 <g>
  <title>background</title>
  <rect fill="none" id="canvas_background" height="402" width="582" y="-1" x="-1"/>
 </g>
 <g>
  <title>Layer 1</title>
  <path id="svg_1" fill="#CA4638" d="m30,60c16.56854,0 30,-13.43146 30,-30c0,-16.56854 -13.43146,-30 -30,-30c-16.56854,0 -30,13.43146 -30,30c0,16.56854 13.43146,30 30,30z"/>
  <path id="svg_2" fill="#FFFFFF" d="m33.49214,33.94817c-0.62308,0.62769 -0.09577,1.77115 -0.09577,1.77115l4.69038,7.83231c0,0 0.76962,1.03269 1.43769,1.03269c0.67039,0 1.3327,-0.55038 1.3327,-0.55038l3.70846,-5.30193c0,0 0.37384,-0.66807 0.38192,-1.25423c0.01385,-0.83307 -1.24269,-1.06153 -1.24269,-1.06153l-8.77962,-2.81885c0,0 -0.85961,-0.22731 -1.43307,0.35077l0,0zm-0.44423,-3.94846c0.45,0.76154 1.68807,0.54 1.68807,0.54l8.76,-2.56039c0,0 1.19423,-0.48577 1.365,-1.13192c0.16731,-0.64846 -0.19731,-1.42846 -0.19731,-1.42846l-4.18615,-4.93039c0,0 -0.36231,-0.62423 -1.11577,-0.68654c-0.82961,-0.07153 -1.34077,0.93347 -1.34077,0.93347l-4.95,7.78961c0,-0.00115 -0.43731,0.77423 -0.02307,1.47462l0,0zm-4.13885,-3.03693c1.03154,-0.25384 1.19538,-1.75269 1.19538,-1.75269l-0.07038,-12.47192c0,0 -0.15577,-1.53808 -0.84692,-1.95462c-1.08347,-0.65769 -1.40539,-0.31384 -1.71577,-0.26884l-7.2727,2.70346c0,0 -0.71307,0.23538 -1.08346,0.82961c-0.52961,0.84231 0.5377,2.07577 0.5377,2.07577l7.56,10.30385c0,-0.00115 0.74653,0.76961 1.69615,0.53538l0,0zm-1.79539,5.04693c0.02539,-0.96116 -1.155,-1.53923 -1.155,-1.53923l-7.8173,-3.94962c0,0 -1.15846,-0.47769 -1.72154,-0.14423c-0.43039,0.255 -0.81231,0.71423 -0.84923,1.12269l-0.50885,6.26769c0,0 -0.07615,1.08577 0.20539,1.57962c0.39923,0.70038 1.71,0.21346 1.71,0.21346l9.12577,-2.01692c0.35423,-0.24 0.97615,-0.26077 1.01076,-1.53346l0,0zm2.26847,3.38307c-0.78347,-0.40269 -1.72154,0.43154 -1.72154,0.43154l-6.11077,6.72693c0,0 -0.76269,1.02807 -0.56885,1.65923c0.18231,0.59192 0.48462,0.8873 0.91269,1.09384l6.13731,1.93731c0,0 0.74423,0.15462 1.30731,-0.00923c0.79962,-0.23077 0.65192,-1.48385 0.65192,-1.48385l0.13846,-9.10846c0.00116,0.00116 -0.02884,-0.87692 -0.74653,-1.24731l0,0z"/>
 </g>
</svg>